<svg xmlns="http://www.w3.org/2000/svg" width="55.004" height="54.975" viewBox="0 0 55.004 54.975"><g transform="translate(-1208.996 -2602.422)"><rect width="6" height="11" transform="translate(1210 2631)" fill="#1a83ca"/><rect width="6" height="11" transform="translate(1257 2631)" fill="#1a83ca"/><rect width="13" height="8" transform="translate(1230 2648)" fill="#1a83ca"/><g transform="translate(1588.789 2263.492)"><path d="M-332.359,419.051a15.032,15.032,0,0,1-8.853,2.395c-1.315-.036-2.632-.006-3.929-.006l-.905,2.681c.961.254,1.087.417,1.087,1.44q0,3.753,0,7.506c0,.9-.3,1.208-1.2,1.208q-6.129,0-12.258,0c-.9,0-1.208-.3-1.209-1.2q0-3.81,0-7.62c0-.843.111-1,.9-1.326V421.44c-1.194,0-2.371.03-3.546-.009a24.758,24.758,0,0,1-3.589-.255,28.193,28.193,0,0,1-3.387-1.009c-1.111-.35-1.939-1.32-3.117-1.535-.356.856-.527.972-1.36.973-1.642,0-3.284,0-4.926,0-.819,0-1.139-.324-1.139-1.151q0-5.271,0-10.542c0-.821.322-1.139,1.148-1.141q2.52-.006,5.041,0c.82,0,1.136.323,1.143,1.147,0,.512,0,1.024,0,1.619a11.073,11.073,0,0,1,7.377,1.759,17.59,17.59,0,0,0,1.431-1.285,1.473,1.473,0,0,0,.344-.9c.026-2.731.079-5.464,0-8.193a9.258,9.258,0,0,1,6.513-9.328,1.24,1.24,0,0,0,.221-.121,7.078,7.078,0,0,1-1.213-3.656c-.035-.879.3-1.212,1.184-1.213q4.325,0,8.65,0c.847,0,1.182.344,1.15,1.19a7.133,7.133,0,0,1-1.217,3.688c.178.069.329.133.483.186a9.162,9.162,0,0,1,6.234,8.606c.032,3.074.014,6.15,0,9.224a1.008,1.008,0,0,0,.386.808c.508.5.93,1.079,1.42,1.665a10.385,10.385,0,0,1,7.369-2.44c0-.579-.006-1.124,0-1.67.01-.749.338-1.081,1.089-1.084q2.578-.01,5.155,0c.748,0,1.084.338,1.085,1.088q.007,5.328,0,10.657c0,.747-.339,1.084-1.087,1.087-1.718.007-3.437.032-5.154-.02A4.657,4.657,0,0,1-332.359,419.051Zm-10.781-9.532c0-3.291.1-6.5-.026-9.7a7.105,7.105,0,0,0-6.168-6.676,37.981,37.981,0,0,0-4.631-.118,7.328,7.328,0,0,0-7.493,7.5q-.006,4.383,0,8.767a2.6,2.6,0,0,1-1.281,2.346,4.218,4.218,0,0,0-.549.494l.073.141c.89,0,1.78-.015,2.669,0a2.614,2.614,0,0,1,2.414,1.466.621.621,0,0,0,.672.366c2.177-.008,4.354,0,6.531-.006.146,0,.292-.023.431-.035.228-2.372.723-3.236,2.157-3.525a3.579,3.579,0,0,1,1.617.105,2.608,2.608,0,0,1,1.64,1.643h3.42l.178-.263c-.194-.111-.4-.208-.58-.334-.881-.606-1.9-.2-2.857-.383v-1.791Zm-9.262,12.243a20.187,20.187,0,0,1,.442-3.064,19.03,19.03,0,0,1,1.269-2.719h-6.138v8.21c2.792,0,5.539.006,8.285-.014a.655.655,0,0,0,.5-.328,13.838,13.838,0,0,0,1.1-3.394c.2-2.408.128-4.839.146-7.26a.885.885,0,0,0-.9-.918.9.9,0,0,0-.917.962c-.017.9-.023,1.794,0,2.69a1.615,1.615,0,0,1-.462,1.237,4.74,4.74,0,0,0-1.289,2.689c-.081.634-.094,1.276-.137,1.91Zm-5.349,4.287V432.4h10.929v-6.348Zm-7.35-10.111c1.5,0,2.947,0,4.394,0,.669,0,1.081-.367,1.077-.922s-.415-.9-1.091-.908c-.992-.006-1.985-.027-2.976.008a1.929,1.929,0,0,1-1.482-.565,8.882,8.882,0,0,0-7.253-2.148v5.493c.951-.268,1.6.279,2.311.729a11.281,11.281,0,0,0,5.4,1.869c1.958.114,3.926.073,5.889.1.03,0,.06-.04.075-.051V417.75H-365.1Zm20.191,3.667c1.539,0,3.064.012,4.588,0a12.892,12.892,0,0,0,7.35-2.345c.261-.18.545-.328.8-.48v-5.4a8.582,8.582,0,0,0-6.489,2.295,1.8,1.8,0,0,1-1.062.416c-1.411.047-2.824.017-4.236.021-.643,0-.994.33-1,.911a.864.864,0,0,0,.987.92c1.317,0,2.634,0,3.951,0h.539v1.824c-.179.046-.343.092-.509.13-1.5.349-3.006.7-4.512,1.041C-344.845,419.011-345.07,419.132-344.91,419.605Zm-29.407-10.961h-3.6v9.1h3.6Zm47.652,9.1v-9.1h-3.595v9.1Zm-29.181-29.292a5.759,5.759,0,0,0,1.224,2.594.559.559,0,0,0,.4.129q1.944.014,3.887,0c.122,0,.3-.025.356-.1a5.714,5.714,0,0,0,1.238-2.619Z" transform="translate(0 -40.372)" fill="#4d4d4d"/><path d="M-275.658,366.221l1.152-1.072,1.85,1.878-1.175,1.025Z" transform="translate(-88.197 -22.206)" fill="#4d4d4d"/><path d="M-141.426,366.032l-1.835,1.919-1.213-1.211,1.89-1.878Z" transform="translate(-199.305 -21.963)" fill="#4d4d4d"/><path d="M-204.066,341.629h-1.743v-2.7h1.743Z" transform="translate(-147.356)" fill="#4d4d4d"/><path d="M-301.76,436.493v-1.762h2.679v1.762Z" transform="translate(-66.09 -81.139)" fill="#4d4d4d"/><path d="M-113.3,436.563h-2.658V434.78h2.658Z" transform="translate(-223.453 -81.18)" fill="#4d4d4d"/><path d="M-221.314,454.511v-1.77h1.817v1.775h1.814v1.856c-1.177,0-2.336,0-3.5,0a.942.942,0,0,0-.97.565.894.894,0,0,0,.812,1.26c.571.032,1.145.007,1.718.011a2.772,2.772,0,0,1,2.88,2.531,2.769,2.769,0,0,1-2.442,2.956c-.075.012-.151.019-.283.035V465.5H-221.3V463.73h-1.814v-1.857c1.176,0,2.335,0,3.494,0a.944.944,0,0,0,.97-.566.893.893,0,0,0-.811-1.259c-.571-.032-1.145-.006-1.718-.011a2.777,2.777,0,0,1-2.88-2.531,2.769,2.769,0,0,1,2.5-2.962Z" transform="translate(-131.895 -96.392)" fill="#4d4d4d"/></g></g></svg>