<svg xmlns="http://www.w3.org/2000/svg" width="49.846" height="49.992" viewBox="0 0 49.846 49.992"><g transform="translate(-220.043 -1808)"><path d="M-140.528,1110l-4.173,2.256-9.092,9.818v2.492l3.793,2.771,13.037-12.236v-2.845Z" transform="translate(406 730)" fill="#1a83ca"/><path d="M-185.019,1114.849l12.071,12.286,2.641-1.135,2.434-2.711v-2.41l-11.538-9.793L-182,1110l-3.019,2.7Z" transform="translate(406 730)" fill="#1a83ca"/><g transform="translate(-395.505 1643.044)"><path d="M628.847,268.325a4.884,4.884,0,0,1-2.477-1.636c-.453-.49-.945-.942-1.41-1.42a.984.984,0,1,1,1.382-1.387c.664.647,1.31,1.314,1.971,1.964a1.344,1.344,0,0,0,2.129-.009c.477-.467.946-.941,1.416-1.414a1.3,1.3,0,0,0-.018-2.158c-1.753-1.765-3.491-3.546-5.244-5.312q-2.3-2.321-4.629-4.622a8.321,8.321,0,0,0-.728-.645,1.219,1.219,0,0,0-1.494.1c-.655.609-1.3,1.237-1.9,1.895a1.269,1.269,0,0,0,.131,1.838c.681.7,1.382,1.38,2.068,2.075a.937.937,0,0,1,.219,1.118.867.867,0,0,1-.936.558,1.284,1.284,0,0,1-.681-.321c-.755-.717-1.5-1.447-2.212-2.206a3.227,3.227,0,0,1-.015-4.43c.619-.668,1.261-1.318,1.935-1.931a3.235,3.235,0,0,1,3.272-.707.637.637,0,0,0,.512-.038c1.035-1.008,2.047-2.04,3.064-3.065a3.5,3.5,0,0,1,1.137-5.839,3.492,3.492,0,0,1,2.139-5.266,3.525,3.525,0,0,1,.374-2.665,3.4,3.4,0,0,1,2.115-1.579,10.376,10.376,0,0,1,.094-1.776,3.387,3.387,0,0,1,4.114-2.52.848.848,0,0,0,.6-.121,3.416,3.416,0,0,1,2.729-.343c2.111.382,4.215.8,6.325,1.189.4.073.813.029,1.211.1a3.37,3.37,0,0,1,2.847,3.97c-.015.1-.021.193-.036.335a3.47,3.47,0,0,1,2.564,4.257,3.571,3.571,0,0,1,2.6,4.331,3.449,3.449,0,0,1,1.508,5.918l2.395,2.392a2.29,2.29,0,0,1,.24.243,1.017,1.017,0,0,0,1.348.378,2.932,2.932,0,0,1,3.037.688c.685.623,1.345,1.28,1.971,1.962a3.2,3.2,0,0,1-.049,4.463q-5.291,5.341-10.637,10.627a3.226,3.226,0,0,1-4.576-.032c-.586-.565-1.166-1.136-1.727-1.725a3.173,3.173,0,0,1-.71-3.6.455.455,0,0,0-.135-.583c-1.181-1.167-2.35-2.345-3.532-3.51a.759.759,0,0,0-.45-.219c-1.055-.044-2.112-.064-3.168-.085a4.388,4.388,0,0,0-1.069.026,2.277,2.277,0,0,0-1.024.469c-1.111,1.05-2.172,2.153-3.263,3.226a.449.449,0,0,0-.111.618,3.2,3.2,0,0,1-.6,3.7,17.67,17.67,0,0,1-1.772,1.745,11.888,11.888,0,0,1-1.761.977Zm-5.233-17.349,9.032,9.08c1.118-1.122,2.274-2.266,3.411-3.43a3.1,3.1,0,0,1,2.208-1,24.349,24.349,0,0,1,2.728.051,4.143,4.143,0,0,0,4.062-1.44.942.942,0,0,1,1.459-.092,1,1,0,0,1-.079,1.474c-.421.475-.812.976-1.171,1.409l2.993,3.019,8.869-8.905-3.083-3.11c-.2.189-.419.431-.672.632a.954.954,0,0,1-1.414-.2.985.985,0,0,1,.18-1.323c.707-.72,1.438-1.416,2.134-2.146a1.42,1.42,0,0,0,.013-2.021,1.436,1.436,0,0,0-2.024-.029c-.268.237-.508.5-.765.753a1,1,0,0,1-1.506.11,1.02,1.02,0,0,1,.129-1.507c.525-.533,1.069-1.048,1.58-1.595a1.439,1.439,0,1,0-2.049-2.02c-.287.265-.554.551-.833.824a1.027,1.027,0,0,1-1.543.124,1.015,1.015,0,0,1,.146-1.506c.582-.592,1.189-1.16,1.748-1.772a1.408,1.408,0,0,0-.078-2.016,1.435,1.435,0,0,0-1.989.031c-.275.253-.531.528-.8.791-.558.552-1.145.626-1.58.2s-.376-1.026.173-1.578,1.083-1.08,1.623-1.621a1.4,1.4,0,0,0,.441-1.238,1.375,1.375,0,0,0-.964-1.178,1.4,1.4,0,0,0-1.521.379c-.824.81-1.629,1.639-2.459,2.442a.507.507,0,0,0-.132.7,3.381,3.381,0,0,1-2.014,4.631,9.946,9.946,0,0,1-1.063.224c-.018.079-.046.171-.06.266a3.319,3.319,0,0,1-3.106,3.092c-.293.041-.318.188-.344.419a3.348,3.348,0,0,1-2.976,3.01c-.139.018-.277.051-.38.071a10.377,10.377,0,0,1-.22,1.044,3.419,3.419,0,0,1-4.671,2.042c-.146-.064-.413-.1-.5-.017C625.538,249.035,624.546,250.042,623.615,250.976Zm27.956,15.415a5.061,5.061,0,0,0,1.009-.606q5.2-5.15,10.358-10.333a1.31,1.31,0,0,0,.012-2.02q-.781-.8-1.589-1.583a1.307,1.307,0,0,0-1.989-.009q-5.219,5.2-10.42,10.409a1.3,1.3,0,0,0-.008,1.95c.541.563,1.084,1.125,1.664,1.645A5.351,5.351,0,0,0,651.57,266.391Zm-16.453-26.848a1.508,1.508,0,0,0,1.543-.832,1.435,1.435,0,0,0-.322-1.659q-1.733-1.751-3.49-3.479a1.438,1.438,0,1,0-2.04,2.024c1.151,1.172,2.308,2.339,3.492,3.477A3.225,3.225,0,0,0,635.117,239.543Zm-2.285-9.214a5.456,5.456,0,0,0,.561.978c.482.548,1.024,1.042,1.541,1.559.931.93,1.852,1.87,2.8,2.786a1.435,1.435,0,0,0,2.363-.372,1.1,1.1,0,0,0-.6-1.594,8.1,8.1,0,0,1-4.19-4.217.9.9,0,0,0-1.03-.653A1.592,1.592,0,0,0,632.832,230.329Zm.586,11.179a2.693,2.693,0,0,0-.361-.824c-.964-1.013-1.943-2.013-2.962-2.97a1.382,1.382,0,0,0-1.905.108,1.354,1.354,0,0,0-.114,1.863c.963,1.034,1.971,2.031,3,3a1.274,1.274,0,0,0,1.513.121A1.537,1.537,0,0,0,633.418,241.508Zm-7.359,2.593a1.3,1.3,0,0,0,.182.548,12.331,12.331,0,0,0,1.62,1.586,1.315,1.315,0,0,0,1.713-.326,1.374,1.374,0,0,0,.059-1.788,10.314,10.314,0,0,0-1.27-1.27,1.306,1.306,0,0,0-1.506-.142A1.45,1.45,0,0,0,626.059,244.1Zm16.412-14.893c-1.786-.269-3.547-.79-5.5-.907a6.366,6.366,0,0,0,2.966,3.448Z" transform="translate(0 -53.377)" fill="#4d4d4d"/><path d="M677.263,167.008a2.387,2.387,0,0,1,.615.353c1.164,1.132,2.311,2.281,3.452,3.435a.985.985,0,1,1-1.375,1.4c-1.167-1.152-2.323-2.314-3.483-3.473a.959.959,0,0,1-.239-1.115A1,1,0,0,1,677.263,167.008Z" transform="translate(-52.693 -1.784)" fill="#4d4d4d"/><path d="M892.7,171.513a3.411,3.411,0,0,1,.412-.684q1.708-1.743,3.451-3.454A.983.983,0,0,1,898,167.3a1,1,0,0,1-.061,1.473c-1.133,1.145-2.278,2.278-3.416,3.419a1,1,0,0,1-1.2.263A1.094,1.094,0,0,1,892.7,171.513Z" transform="translate(-240.997 -1.798)" fill="#4d4d4d"/><path d="M800.283,168.156c0,.7.008,1.4,0,2.1a.967.967,0,0,1-.978,1.046.981.981,0,0,1-.977-1.053q-.015-2.121,0-4.242a.985.985,0,0,1,.984-1.048.974.974,0,0,1,.971,1.055C800.291,166.726,800.283,167.441,800.283,168.156Z" transform="translate(-158.927)" fill="#4d4d4d"/><path d="M660.84,488.886a.963.963,0,0,1-.989-.982.977.977,0,1,1,1.954.025A.96.96,0,0,1,660.84,488.886Z" transform="translate(-38.523 -279.974)" fill="#4d4d4d"/><path d="M864.913,415.474a.956.956,0,0,1-.986-.934.982.982,0,0,1,.96-1.021,1.006,1.006,0,0,1,1,.995A.983.983,0,0,1,864.913,415.474Z" transform="translate(-215.977 -216.137)" fill="#4d4d4d"/></g></g></svg>