<svg xmlns="http://www.w3.org/2000/svg" width="48" height="47.998" viewBox="0 0 48 47.998"><g transform="translate(-222 -1984.916)"><path d="M-166,1262.518c.108,1.182-6.57,9.46-6.98,10.853s-1.468,4.063-1.468,4.063l-6.1-7.433,7.565-7.482S-166.108,1261.335-166,1262.518Z" transform="translate(406 730)" fill="#1a83ca"/><path d="M-143.59,1283.308l.694,6.442-4.746,6.088-4.06,3.829-6.387-6.973,6.387-2,7-6.037Z" transform="translate(406 730)" fill="#1a83ca"/><g transform="translate(187.935 1885.988)"><path d="M34.065,519.359c.277-.313.539-.641.834-.937q3.273-3.287,6.557-6.563.954-.954,1.615-.253c.429.452.338.957-.286,1.581q-3.281,3.28-6.564,6.556c-.3.294-.624.557-.937.834H34.065Z" transform="translate(0 -373.652)" fill="#4d4d4d"/><path d="M69.842,135.782l-4.813-4.8a1.871,1.871,0,0,1-.247.423q-2.469,2.5-4.954,4.988a2.953,2.953,0,0,1-.46.4.914.914,0,0,1-1.254-1.271,2.833,2.833,0,0,1,.366-.424q2.475-2.5,4.955-4.986c.121-.121.263-.221.367-.308a.574.574,0,0,0-.037-.117c-1.145-1.175-.941-.891-.731-2.525.173-1.347.352-2.693.554-4.035a1.024,1.024,0,0,0-.335-.984c-2.245-2.217-4.471-4.455-6.7-6.686-.72-.72-.723-1.142-.01-1.854,1.946-1.942,3.837-3.944,5.853-5.81a10.3,10.3,0,0,1,10.51-2.406.754.754,0,0,0,.754-.178,31.317,31.317,0,0,1,26.458-5.322,1.087,1.087,0,0,1,.875.864,31.094,31.094,0,0,1-3.583,23.9c-.547.925-1.212,1.78-1.794,2.685a.857.857,0,0,0-.1.624,10.474,10.474,0,0,1-2.661,10.8c-1.849,1.927-3.769,3.787-5.661,5.673A1.012,1.012,0,0,1,85.5,144.4q-3.416-3.411-6.819-6.834a.948.948,0,0,0-.914-.279c-1.592.226-3.189.413-4.776.666a1.4,1.4,0,0,1-1.416-.487c-.121-.143-.235-.291-.436-.541a4.481,4.481,0,0,1-.366.505q-3.6,3.592-7.207,7.175a3.382,3.382,0,0,1-.454.4.927.927,0,0,1-1.162-.1.916.916,0,0,1-.118-1.156,2.991,2.991,0,0,1,.4-.458q3.6-3.589,7.209-7.173C69.565,136,69.7,135.9,69.842,135.782Zm30.231-27.108A31.811,31.811,0,0,0,99.362,102a.546.546,0,0,0-.506-.486,27.69,27.69,0,0,0-13.088.12C75.562,104.279,68.491,110.5,64.7,120.38a.572.572,0,0,0,.143.725q7.484,7.461,14.946,14.944a.524.524,0,0,0,.643.157,28.9,28.9,0,0,0,12.554-8.7A29.435,29.435,0,0,0,100.074,108.675Zm-41.737,5.779,4.789,4.788a31.421,31.421,0,0,1,8.4-12.3,8.431,8.431,0,0,0-6.457,1.153,16.823,16.823,0,0,0-2.38,2.026C61.2,111.551,59.765,113.026,58.336,114.454Zm28.092,28.062a.578.578,0,0,0,.088-.072c1.679-1.678,3.366-3.349,5.034-5.037a8.7,8.7,0,0,0,2.466-4.79,8.017,8.017,0,0,0-.1-3.248,31.373,31.373,0,0,1-12.274,8.379Zm-9.949-6.941L65.3,124.4c-.149,1.069-.319,2.208-.455,3.352a.73.73,0,0,0,.2.519q3.763,3.789,7.554,7.551a.783.783,0,0,0,.563.2C74.3,135.894,75.422,135.724,76.479,135.576Z" transform="translate(-19.885)" fill="#4d4d4d"/><path d="M51.139,512.242a.938.938,0,0,1-.943.908.952.952,0,0,1-.912-.945.969.969,0,0,1,.949-.915A.952.952,0,0,1,51.139,512.242Z" transform="translate(-13.79 -373.635)" fill="#4d4d4d"/><path d="M269.574,215.394c-.642-.638-1.185-1.173-1.723-1.714-.773-.778-.568-1.537.5-1.823q5.9-1.583,11.8-3.156c1.033-.276,1.6.284,1.326,1.31q-1.572,5.9-3.152,11.8c-.292,1.091-1.05,1.291-1.849.489-.528-.53-1.043-1.072-1.586-1.632-.172.162-.3.274-.414.392l-6.167,6.162c-.619.619-1.135.709-1.58.279s-.37-.98.264-1.615l6.926-6.928c.708-.708,1.15-.709,1.856,0,.341.34.678.684,1.077,1.088l2.462-9.175-9.229,2.473c.473.444.875.8,1.255,1.183a.979.979,0,0,1,.026,1.586c-1.363,1.376-2.738,2.741-4.107,4.111a.9.9,0,0,1-1.131.285,1.181,1.181,0,0,1-.536-.785,1.358,1.358,0,0,1,.412-.88c1.015-1.061,2.064-2.089,3.108-3.122A3.409,3.409,0,0,1,269.574,215.394Z" transform="translate(-209.777 -99.4)" fill="#4d4d4d"/><path d="M233.68,350.429a.962.962,0,0,1-.907.945.932.932,0,1,1-.019-1.864A.943.943,0,0,1,233.68,350.429Z" transform="translate(-179.178 -227.048)" fill="#4d4d4d"/></g></g></svg>